<svg width="504" height="156" viewBox="0 0 504 156" preserveAspectRatio="xMinYMid meet" xmlns="http://www.w3.org/2000/svg" xmlns:xlink="http://www.w3.org/1999/xlink" xml:space="preserve" overflow="hidden"><g transform="translate(-16 -24)"><g><g><g><g><path d="M6.89859 0 47.8422 0 47.8422-11.199 19.7103-11.199 19.7103-63.6104 6.89859-63.6104 6.89859 0Z" fill="#475569" fill-rule="nonzero" fill-opacity="1" transform="matrix(1.00234 0 0 1 96.786 135.557)"></path><path d="M12.3637-49.7236C16.5745-49.7236 19.7999-52.9489 19.7999-56.9806 19.7999-60.9226 16.5745-64.148 12.3637-64.148 8.06329-64.148 4.92757-60.9226 4.92757-56.9806 4.92757-52.9489 8.06329-49.7236 12.3637-49.7236ZM6.36104 0 18.0976 0 18.0976-43.8105 6.36104-43.8105 6.36104 0Z" fill="#475569" fill-rule="nonzero" fill-opacity="1" transform="matrix(1.00234 0 0 1 143.843 135.557)"></path><path d="M7.34655 0 19.1727 0 19.1727-34.045 28.8487-34.045 28.8487-43.8105 19.1727-43.8105 19.1727-50.4404C19.1727-54.6512 20.7854-56.3534 23.5627-56.3534 25.1754-56.3534 27.5944-55.5471 30.0134-54.3824L32.4323-63.5208C30.4613-64.8647 26.4297-66.7461 21.1437-66.7461 12.4533-66.7461 7.34655-61.4602 7.34655-51.2467L7.34655-43.8105 2.77736-43.8105 2.77736-34.045 7.34655-34.045 7.34655 0Z" fill="#475569" fill-rule="nonzero" fill-opacity="1" transform="matrix(1.00234 0 0 1 164.766 135.557)"></path><path d="M46.5879-22.3084C46.5879-35.1201 37.9871-44.4377 25.6233-44.4377 12.6325-44.4377 3.4045-35.2993 3.4045-21.9501 3.4045-8.24248 12.9013 0.806329 26.3401 0.806329 36.1056 0.806329 41.7499-2.77736 45.4232-7.52574L37.8079-14.6035C35.4785-11.7366 32.074-9.67595 27.1464-9.67595 21.2333-9.67595 17.0225-12.8117 15.589-18.0976L46.3191-18.0976C46.4087-18.8143 46.5879-20.875 46.5879-22.3084ZM25.5338-34.2242C30.6405-34.2242 33.7762-31.1781 34.9409-26.5193L15.6786-26.5193C17.0225-31.5364 20.7854-34.2242 25.5338-34.2242Z" fill="#475569" fill-rule="nonzero" fill-opacity="1" transform="matrix(1.00234 0 0 1 192.156 135.557)"></path><path d="M19.979 0.806329C31.4468 0.806329 36.912-5.10675 36.912-12.8117 36.912-21.5021 31.3572-23.5627 21.8605-27.0568 17.5601-28.6695 15.4098-29.9238 15.4098-31.7156 15.4098-34.045 17.7392-34.9409 19.5311-34.9409 22.7564-34.9409 26.6985-33.5075 30.0134-30.2821L35.7473-38.9726C30.7301-42.825 25.8025-44.4377 19.7999-44.4377 10.7511-44.4377 3.94205-39.3309 3.94205-31.4468 3.94205-22.9356 10.2135-19.5311 17.4705-17.1121 23.1148-15.2307 25.3546-14.2451 25.3546-12.3637 25.3546-10.2135 23.4731-8.78003 20.0686-8.78003 15.2307-8.78003 11.4678-10.4823 7.88411-13.7972L2.2398-5.6443C6.98819-1.52307 12.9909 0.806329 19.979 0.806329Z" fill="#475569" fill-rule="nonzero" fill-opacity="1" transform="matrix(1.00234 0 0 1 238.584 135.557)"></path><path d="M19.3519 0.806329C25.265 0.806329 28.1319-0.447961 30.9093-1.97103L27.9527-11.3782C25.9817-10.3927 23.8315-9.85513 22.398-9.85513 19.6207-9.85513 18.6352-11.647 18.6352-15.4994L18.6352-34.045 30.4613-34.045 30.4613-43.8105 18.6352-43.8105 18.6352-59.31 6.89859-58.0557 6.89859-43.8105 1.70225-43.8105 1.70225-34.045 6.89859-34.045 6.89859-13.7972C6.89859-3.94205 11.8262 0.806329 19.3519 0.806329Z" fill="#475569" fill-rule="nonzero" fill-opacity="1" transform="matrix(1.00234 0 0 1 274.953 135.557)"></path><path d="M11.1094 17.7392 23.0252 17.7392 46.5879-43.8105 34.6722-43.8105 24.7274-16.9329 24.5482-16.9329 13.8868-43.8105 1.34388-43.8105 18.9039-2.68776 11.1094 17.7392Z" fill="#475569" fill-rule="nonzero" fill-opacity="1" transform="matrix(1.00234 0 0 1 304.498 135.557)"></path><path d="M6.36104-65.9398 18.0976-65.9398 18.0976-1.28163e-07 6.36104-1.28163e-07Z" fill="#475569" fill-rule="nonzero" fill-opacity="1" transform="matrix(1.00234 0 0 1 349.04 135.557)"></path><path d="M46.5879-22.3084C46.5879-35.1201 37.9871-44.4377 25.6233-44.4377 12.6325-44.4377 3.4045-35.2993 3.4045-21.9501 3.4045-8.24248 12.9013 0.806329 26.3401 0.806329 36.1056 0.806329 41.7499-2.77736 45.4232-7.52574L37.8079-14.6035C35.4785-11.7366 32.074-9.67595 27.1464-9.67595 21.2333-9.67595 17.0225-12.8117 15.589-18.0976L46.3191-18.0976C46.4087-18.8143 46.5879-20.875 46.5879-22.3084ZM25.5338-34.2242C30.6405-34.2242 33.7762-31.1781 34.9409-26.5193L15.6786-26.5193C17.0225-31.5364 20.7854-34.2242 25.5338-34.2242Z" fill="#475569" fill-rule="nonzero" fill-opacity="1" transform="matrix(1.00234 0 0 1 369.964 135.557)"></path><path d="M6.89859 0 19.3519 0 19.3519-21.7709 26.6089-21.7709 40.854 0 55.8159 0 39.8685-23.294C48.6485-26.1609 53.1281-32.7907 53.1281-42.4667 53.1281-54.6512 46.3191-63.6104 30.9989-63.6104L6.89859-63.6104 6.89859 0ZM19.3519-32.8803 19.3519-52.4114 29.0278-52.4114C36.2848-52.4114 40.1373-48.5589 40.1373-42.6459 40.1373-36.8224 36.1952-32.8803 28.4903-32.8803L19.3519-32.8803Z" fill="#7FC600" fill-rule="nonzero" fill-opacity="1" transform="matrix(1.00234 0 0 1 416.391 135.557)"></path><path d="M1.79184 0 14.5139 0 23.4731-12.5429 23.6523-12.5429 32.4323 0 45.3336 0 30.103-22.3084 45.0648-43.8105 31.7156-43.8105 23.5627-31.2677 23.3835-31.2677 15.3203-43.8105 1.88143-43.8105 16.9329-22.398 1.79184 0Z" fill="#7FC600" fill-rule="nonzero" fill-opacity="1" transform="matrix(1.00234 0 0 1 471.62 135.557)"></path><path d="M54.739 107.831 10.4147 107.831C10.9084 104.042 12.2597 100.46 14.3836 97.3086L38.4188 97.3086C40.1817 97.3086 41.604 95.8821 41.604 94.1179 41.604 92.3604 40.1817 90.9326 38.4188 90.9326L20.1141 90.9326 29.8491 81.2045C29.9503 81.1128 30.0515 81.0226 30.1527 80.9186L44.7811 66.297C51.3705 59.7145 54.9879 50.9643 54.9879 41.656 54.9879 32.3587 51.3759 23.6126 44.8003 17.041L30.6054 2.84472C28.6141 0.847946 25.3768 0.847946 23.391 2.84472 21.3942 4.83329 21.3942 8.06369 23.391 10.0495L37.5818 24.2512C42.2291 28.8931 44.792 35.0776 44.792 41.656 44.792 48.2413 42.2291 54.419 37.5654 59.0772L24.6971 71.9482C24.5904 72.0385 24.4892 72.1301 24.3825 72.2327L10.1918 86.4262C3.61745 93.0032 0 101.745 0 111.047 0 120.351 3.62155 129.105 10.2068 135.689L24.8339 150.305C25.8295 151.31 27.1397 151.81 28.4404 151.81 29.752 151.81 31.0581 151.31 32.0537 150.305 34.045 148.317 34.045 145.093 32.0537 143.096L20.0635 131.101 38.4188 131.101C40.1817 131.101 41.604 129.674 41.604 127.921 41.604 126.158 40.1817 124.734 38.4188 124.734L14.3426 124.734C12.2337 121.58 10.8879 117.993 10.4147 114.203L54.739 114.203C56.5074 114.203 57.9297 112.775 57.9297 111.019 57.9297 109.265 56.5074 107.831 54.739 107.831Z" fill="#7FC600" fill-rule="nonzero" fill-opacity="1" transform="matrix(1.00234 0 0 1 19.3239 24.8137)"></path><path d="M4.47497 71.4805C5.09998 72.1041 5.91374 72.4091 6.73159 72.4091 7.54945 72.4091 8.36184 72.1041 8.98686 71.4805L33.8563 46.6042C35.0967 45.3651 35.0967 43.3505 33.8563 42.1032 32.6117 40.8532 30.5958 40.8532 29.3458 42.1032L4.47497 66.9686C3.2304 68.2172 3.2304 70.2373 4.47497 71.4805Z" fill="#7FC600" fill-rule="nonzero" fill-opacity="1" transform="matrix(1.00234 0 0 1 19.226 25.3248)"></path><path d="M6.57431 48.3452C7.38123 48.3452 8.20593 48.0266 8.82958 47.4029L26.5202 29.7096C27.7648 28.4718 27.7648 26.4504 26.5202 25.2004 25.2756 23.9558 23.2583 23.9558 22.0138 25.2004L4.31768 42.8951C3.07312 44.1506 3.07312 46.1624 4.31768 47.4029 4.9427 48.0266 5.75099 48.3452 6.57431 48.3452Z" fill="#7FC600" fill-rule="nonzero" fill-opacity="1" transform="matrix(1.00234 0 0 1 19.226 25.3248)"></path><path d="M6.73159 24.5863C7.54945 24.5863 8.36184 24.2759 8.98686 23.6508L15.8456 16.7962C17.0916 15.5571 17.0916 13.5357 15.8456 12.2856 14.5915 11.0397 12.5797 11.0397 11.3351 12.2856L4.47497 19.139C3.2304 20.389 3.2304 22.4063 4.47497 23.6508 5.09998 24.2759 5.91374 24.5863 6.73159 24.5863Z" fill="#7FC600" fill-rule="nonzero" fill-opacity="1" transform="matrix(1.00234 0 0 1 19.226 25.3248)"></path></g></g></g></g></g></svg>